<svg width="45" height="44" viewBox="0 0 45 44" fill="none" xmlns="http://www.w3.org/2000/svg">
<g clip-path="url(#clip0_153_1082)">
<path d="M43.5834 19.25C43.5834 18.7638 43.3903 18.2975 43.0464 17.9536C42.7026 17.6098 42.2363 17.4167 41.7501 17.4167H30.4384L36.0942 7.62117C36.3374 7.20009 36.4032 6.69969 36.2774 6.23004C36.1516 5.76039 35.8443 5.35996 35.4232 5.11684L30.6566 2.36684C30.2355 2.12373 29.7351 2.05785 29.2654 2.18369C28.7958 2.30953 28.3954 2.61677 28.1522 3.03784L22.5001 12.8333L16.8442 3.03234C16.6011 2.61127 16.2007 2.30403 15.731 2.17819C15.2614 2.05235 14.761 2.11823 14.3399 2.36134L9.57325 5.11134C9.15218 5.35446 8.84494 5.75489 8.7191 6.22454C8.59326 6.69419 8.65914 7.19459 8.90225 7.61567L14.5617 17.4167H3.25008C2.76385 17.4167 2.29754 17.6098 1.95372 17.9536C1.6099 18.2975 1.41675 18.7638 1.41675 19.25V24.75C1.41675 25.2362 1.6099 25.7026 1.95372 26.0464C2.29754 26.3902 2.76385 26.5833 3.25008 26.5833H14.5617L8.90591 36.3733C8.66281 36.7944 8.59693 37.2948 8.72277 37.7645C8.8486 38.2341 9.15585 38.6345 9.57692 38.8777L14.3436 41.6277C14.7647 41.8708 15.2651 41.9367 15.7347 41.8108C16.2044 41.685 16.6048 41.3777 16.8479 40.9567L22.5001 31.1667L28.1559 40.9622C28.399 41.3832 28.7995 41.6905 29.2691 41.8163C29.7388 41.9422 30.2392 41.8763 30.6602 41.6332L35.4269 38.8832C35.848 38.64 36.1552 38.2396 36.2811 37.77C36.4069 37.3003 36.341 36.7999 36.0979 36.3788L30.4384 26.5833H41.7501C42.2363 26.5833 42.7026 26.3902 43.0464 26.0464C43.3903 25.7026 43.5834 25.2362 43.5834 24.75V19.25Z" fill="#DFF9FF"/>
<path d="M33.2324 3.85001L30.6657 2.36317C30.2447 2.12007 29.7443 2.05419 29.2746 2.18002C28.805 2.30586 28.4045 2.6131 28.1614 3.03417L22.5001 12.8333L16.8442 3.03234C16.6011 2.61127 16.2007 2.30403 15.731 2.17819C15.2614 2.05235 14.761 2.11823 14.3399 2.36134L9.57325 5.11134C9.15218 5.35446 8.84494 5.75489 8.7191 6.22454C8.59326 6.69419 8.65914 7.19459 8.90225 7.61567L14.5617 17.4167H3.25008C2.76385 17.4167 2.29754 17.6098 1.95372 17.9536C1.6099 18.2975 1.41675 18.7638 1.41675 19.25V24.75C1.41675 25.2362 1.6099 25.7026 1.95372 26.0464C2.29754 26.3902 2.76385 26.5833 3.25008 26.5833H14.5617L8.90591 36.3733C8.78526 36.5819 8.7069 36.8122 8.67532 37.0511C8.64374 37.29 8.65956 37.5328 8.72188 37.7655C8.7842 37.9983 8.8918 38.2165 9.03851 38.4076C9.18523 38.5988 9.36818 38.7591 9.57691 38.8795L11.9602 40.2582L33.2324 3.85001Z" fill="white"/>
<path d="M43.5834 19.25C43.5834 18.7638 43.3903 18.2975 43.0464 17.9536C42.7026 17.6098 42.2363 17.4167 41.7501 17.4167H30.4384L36.0943 7.62117C36.3374 7.20009 36.4032 6.69969 36.2774 6.23004C36.1516 5.76039 35.8443 5.35996 35.4232 5.11684L30.6566 2.36684C30.2355 2.12373 29.7351 2.05785 29.2655 2.18369C28.7958 2.30953 28.3954 2.61677 28.1522 3.03784L22.5001 12.8333L16.8442 3.03234C16.6011 2.61127 16.2007 2.30403 15.731 2.17819C15.2614 2.05235 14.761 2.11823 14.3399 2.36134L9.57325 5.11134C9.15218 5.35446 8.84494 5.75489 8.7191 6.22454C8.59326 6.69419 8.65914 7.19459 8.90225 7.61567L14.5617 17.4167H3.25008C2.76385 17.4167 2.29754 17.6098 1.95372 17.9536C1.6099 18.2975 1.41675 18.7638 1.41675 19.25V24.75C1.41675 25.2362 1.6099 25.7026 1.95372 26.0464C2.29754 26.3902 2.76385 26.5833 3.25008 26.5833H14.5617L8.90591 36.3733C8.66281 36.7944 8.59693 37.2948 8.72277 37.7645C8.8486 38.2341 9.15585 38.6345 9.57692 38.8777L14.3436 41.6277C14.7647 41.8708 15.2651 41.9367 15.7347 41.8108C16.2044 41.685 16.6048 41.3777 16.8479 40.9567L22.5001 31.1667L28.1559 40.9622C28.399 41.3832 28.7995 41.6905 29.2691 41.8163C29.7388 41.9422 30.2392 41.8763 30.6602 41.6332L35.4269 38.8832C35.848 38.64 36.1552 38.2396 36.2811 37.77C36.4069 37.3003 36.341 36.7999 36.0979 36.3788L30.4384 26.5833H41.7501C42.2363 26.5833 42.7026 26.3902 43.0464 26.0464C43.3903 25.7026 43.5834 25.2362 43.5834 24.75V19.25Z" stroke="#00303E" stroke-linecap="round" stroke-linejoin="round"/>
</g>
<defs>
<clipPath id="clip0_153_1082">
<rect width="44" height="44" fill="white" transform="translate(0.5)"/>
</clipPath>
</defs>
</svg>
