<svg width="45" height="44" viewBox="0 0 45 44" fill="none" xmlns="http://www.w3.org/2000/svg">
<g clip-path="url(#clip0_153_1091)">
<path d="M3.25008 6.41846H39.9167C39.9167 6.41846 41.7501 6.41846 41.7501 8.25179V41.2518C41.7501 41.2518 41.7501 43.0851 39.9167 43.0851H3.25008C3.25008 43.0851 1.41675 43.0851 1.41675 41.2518V8.25179C1.41675 8.25179 1.41675 6.41846 3.25008 6.41846Z" fill="#DFF9FF"/>
<path d="M41.7501 13.7498H1.41675V8.24984C1.41675 7.76361 1.6099 7.29729 1.95372 6.95347C2.29754 6.60966 2.76385 6.4165 3.25008 6.4165H39.9167C40.403 6.4165 40.8693 6.60966 41.2131 6.95347C41.5569 7.29729 41.7501 7.76361 41.7501 8.24984V13.7498Z" fill="white"/>
<path d="M3.25008 6.41846H39.9167C39.9167 6.41846 41.7501 6.41846 41.7501 8.25179V41.2518C41.7501 41.2518 41.7501 43.0851 39.9167 43.0851H3.25008C3.25008 43.0851 1.41675 43.0851 1.41675 41.2518V8.25179C1.41675 8.25179 1.41675 6.41846 3.25008 6.41846Z" stroke="#00303E" stroke-linecap="round" stroke-linejoin="round"/>
<path d="M6.91675 2.75195V8.25195" stroke="#00303E" stroke-linecap="round" stroke-linejoin="round"/>
<path d="M14.25 2.75195V8.25195" stroke="#00303E" stroke-linecap="round" stroke-linejoin="round"/>
<path d="M21.5833 2.75195V8.25195" stroke="#00303E" stroke-linecap="round" stroke-linejoin="round"/>
<path d="M28.9167 2.75195V8.25195" stroke="#00303E" stroke-linecap="round" stroke-linejoin="round"/>
<path d="M36.25 2.75195V8.25195" stroke="#00303E" stroke-linecap="round" stroke-linejoin="round"/>
<path d="M23.4166 15.5835H28.9166V22.9168H21.5833V17.4168C21.5833 16.9306 21.7764 16.4643 22.1202 16.1205C22.464 15.7767 22.9304 15.5835 23.4166 15.5835Z" fill="#9FEAFF" stroke="#00303E" stroke-linecap="round" stroke-linejoin="round"/>
<path d="M28.9167 15.5835H34.4167C34.903 15.5835 35.3693 15.7767 35.7131 16.1205C36.0569 16.4643 36.2501 16.9306 36.2501 17.4168V22.9168H28.9167V15.5835Z" fill="#9FEAFF" stroke="#00303E" stroke-linecap="round" stroke-linejoin="round"/>
<path d="M21.5833 22.9185H28.9166V30.2518H21.5833V22.9185Z" fill="#9FEAFF" stroke="#00303E" stroke-linecap="round" stroke-linejoin="round"/>
<path d="M28.9167 22.9185H36.2501V30.2518H28.9167V22.9185Z" fill="#9FEAFF" stroke="#00303E" stroke-linecap="round" stroke-linejoin="round"/>
<path d="M21.5833 30.252H28.9166V37.5853H21.5833V30.252Z" fill="#9FEAFF" stroke="#00303E" stroke-linecap="round" stroke-linejoin="round"/>
<path d="M28.9167 30.25H36.2501V35.75C36.2501 36.2362 36.0569 36.7025 35.7131 37.0464C35.3693 37.3902 34.903 37.5833 34.4167 37.5833H28.9167V30.25Z" fill="#9FEAFF" stroke="#00303E" stroke-linecap="round" stroke-linejoin="round"/>
<path d="M8.75008 22.9165H14.2501V30.2498H6.91675V24.7498C6.91675 24.2636 7.1099 23.7973 7.45372 23.4535C7.79754 23.1097 8.26385 22.9165 8.75008 22.9165Z" fill="#9FEAFF" stroke="#00303E" stroke-linecap="round" stroke-linejoin="round"/>
<path d="M14.25 22.9185H21.5833V30.2518H14.25V22.9185Z" fill="#9FEAFF" stroke="#00303E" stroke-linecap="round" stroke-linejoin="round"/>
<path d="M6.91675 30.25H14.2501V37.5833H8.75008C8.26385 37.5833 7.79754 37.3902 7.45372 37.0464C7.1099 36.7025 6.91675 36.2362 6.91675 35.75V30.25Z" fill="#9FEAFF" stroke="#00303E" stroke-linecap="round" stroke-linejoin="round"/>
<path d="M14.25 30.252H21.5833V37.5853H14.25V30.252Z" fill="#9FEAFF" stroke="#00303E" stroke-linecap="round" stroke-linejoin="round"/>
</g>
<defs>
<clipPath id="clip0_153_1091">
<rect width="44" height="44" fill="white" transform="translate(0.5)"/>
</clipPath>
</defs>
</svg>
