<svg width="45" height="44" viewBox="0 0 45 44" fill="none" xmlns="http://www.w3.org/2000/svg">
<g clip-path="url(#clip0_153_1122)">
<path d="M41.7501 43.0833H3.25008C2.76385 43.0833 2.29754 42.8901 1.95372 42.5463C1.6099 42.2025 1.41675 41.7362 1.41675 41.2499V18.3094C1.41696 18.0313 1.48045 17.7568 1.60242 17.5069C1.72439 17.2569 1.90164 17.0379 2.12075 16.8666L21.3707 1.80026C21.6932 1.54812 22.0908 1.41113 22.5001 1.41113C22.9094 1.41113 23.307 1.54812 23.6294 1.80026L42.8794 16.8666C43.0985 17.0379 43.2758 17.2569 43.3977 17.5069C43.5197 17.7568 43.5832 18.0313 43.5834 18.3094V41.2499C43.5834 41.7362 43.3903 42.2025 43.0464 42.5463C42.7026 42.8901 42.2363 43.0833 41.7501 43.0833Z" fill="#9FEAFF"/>
<path d="M21.0829 8.73943C21.4872 8.42215 21.9862 8.2497 22.5001 8.2497C23.014 8.2497 23.513 8.42215 23.9172 8.73943L43.5834 24.1394V18.3094C43.5832 18.0313 43.5197 17.7568 43.3977 17.5069C43.2758 17.2569 43.0985 17.0379 42.8794 16.8666L23.6294 1.80026C23.307 1.54812 22.9094 1.41113 22.5001 1.41113C22.0908 1.41113 21.6932 1.54812 21.3707 1.80026L2.12075 16.8666C1.90164 17.0379 1.72439 17.2569 1.60242 17.5069C1.48045 17.7568 1.41696 18.0313 1.41675 18.3094V24.1303L21.0829 8.73943Z" fill="#DFF9FF"/>
<path d="M41.7501 43.0833H3.25008C2.76385 43.0833 2.29754 42.8901 1.95372 42.5463C1.6099 42.2025 1.41675 41.7362 1.41675 41.2499V18.3094C1.41696 18.0313 1.48045 17.7568 1.60242 17.5069C1.72439 17.2569 1.90164 17.0379 2.12075 16.8666L21.3707 1.80026C21.6932 1.54812 22.0908 1.41113 22.5001 1.41113C22.9094 1.41113 23.307 1.54812 23.6294 1.80026L42.8794 16.8666C43.0985 17.0379 43.2758 17.2569 43.3977 17.5069C43.5197 17.7568 43.5832 18.0313 43.5834 18.3094V41.2499C43.5834 41.7362 43.3903 42.2025 43.0464 42.5463C42.7026 42.8901 42.2363 43.0833 41.7501 43.0833Z" stroke="#00303E" stroke-linecap="round" stroke-linejoin="round"/>
</g>
<defs>
<clipPath id="clip0_153_1122">
<rect width="44" height="44" fill="white" transform="translate(0.5)"/>
</clipPath>
</defs>
</svg>
