<svg width="45" height="44" viewBox="0 0 45 44" fill="none" xmlns="http://www.w3.org/2000/svg">
<g clip-path="url(#clip0_153_1111)">
<path d="M4.63599 34.8333C4.57351 35.0745 4.56083 35.3258 4.59873 35.572C4.63663 35.8183 4.72431 36.0542 4.85642 36.2654C4.98852 36.4766 5.16229 36.6586 5.3671 36.8004C5.57191 36.9422 5.80348 37.0408 6.04766 37.0902L35.5973 43.0467C35.8334 43.0942 36.0765 43.0949 36.3128 43.0485C36.5491 43.0021 36.774 42.9096 36.9745 42.7763C37.1751 42.643 37.3474 42.4715 37.4817 42.2716C37.6159 42.0716 37.7095 41.8472 37.757 41.6112L43.5467 12.8553C43.6429 12.3794 43.5464 11.8846 43.2783 11.4797C43.0102 11.0748 42.5924 10.7929 42.1167 10.6957L12.4387 4.72266L4.63599 34.8333Z" fill="#9FEAFF"/>
<path d="M34.4167 28.4165V32.0832C34.4167 32.5694 34.2236 33.0357 33.8798 33.3795C33.536 33.7234 33.0696 33.9165 32.5834 33.9165H3.25008C2.76385 33.9165 2.29754 33.7234 1.95372 33.3795C1.6099 33.0357 1.41675 32.5694 1.41675 32.0832V28.4165H34.4167Z" fill="white"/>
<path d="M32.5834 0.916504C33.0696 0.916504 33.536 1.10966 33.8798 1.45347C34.2236 1.79729 34.4167 2.26361 34.4167 2.74984V28.4165H1.41675V2.74984C1.41675 2.26361 1.6099 1.79729 1.95372 1.45347C2.29754 1.10966 2.76385 0.916504 3.25008 0.916504H32.5834Z" fill="#9FEAFF"/>
<path d="M1.41675 28.4165V2.74984C1.41675 2.26361 1.6099 1.79729 1.95372 1.45347C2.29754 1.10966 2.76385 0.916504 3.25008 0.916504H32.5834L1.41675 28.4165Z" fill="#DFF9FF"/>
<path d="M32.5834 0.916504C33.0696 0.916504 33.536 1.10966 33.8798 1.45347C34.2236 1.79729 34.4167 2.26361 34.4167 2.74984V28.4165H1.41675V2.74984C1.41675 2.26361 1.6099 1.79729 1.95372 1.45347C2.29754 1.10966 2.76385 0.916504 3.25008 0.916504H32.5834Z" stroke="#00303E" stroke-linecap="round" stroke-linejoin="round"/>
<path d="M8.46216 37.5833L35.5955 43.0466C35.8316 43.0942 36.0747 43.0948 36.311 43.0484C36.5473 43.002 36.7722 42.9095 36.9727 42.7762C37.1733 42.6429 37.3456 42.4714 37.4798 42.2715C37.6141 42.0716 37.7076 41.8472 37.7552 41.6111L43.5467 12.8553C43.6429 12.3793 43.5464 11.8846 43.2783 11.4797C43.0102 11.0748 42.5924 10.7928 42.1167 10.6956L38.0833 9.88525" stroke="#00303E" stroke-linecap="round" stroke-linejoin="round"/>
<path d="M6 28.4168C6.01782 26.7149 6.36976 25.0331 7.03583 23.4668C7.76917 22.0002 10.818 20.9918 14.6497 19.5728C15.6855 19.1897 15.515 16.4855 15.0567 15.9795C14.3263 15.1881 13.7716 14.2513 13.4288 13.2304C13.086 12.2096 12.9628 11.1278 13.0675 10.056C13.0018 9.37318 13.0775 8.68417 13.2898 8.03187C13.502 7.37958 13.8464 6.77799 14.3013 6.26458C14.7562 5.75118 15.312 5.33696 15.934 5.04774C16.556 4.75851 17.2309 4.60048 17.9167 4.5835C18.6024 4.60048 19.2773 4.75851 19.8993 5.04774C20.5213 5.33696 21.0771 5.75118 21.5321 6.26458C21.987 6.77799 22.3313 7.37958 22.5436 8.03187C22.7558 8.68417 22.8315 9.37318 22.7658 10.056C22.8708 11.1281 22.7478 12.2102 22.405 13.2314C22.0621 14.2526 21.5072 15.1897 20.7767 15.9813C20.3183 16.4873 20.1478 19.1915 21.1837 19.5747C25.0153 20.9937 28.066 22.0075 28.7975 23.4687C29.4633 25.0343 29.8153 26.7155 29.8333 28.4168H6Z" fill="white"/>
<path d="M34.4167 28.4165V32.0832C34.4167 32.5694 34.2236 33.0357 33.8798 33.3795C33.536 33.7234 33.0696 33.9165 32.5834 33.9165H3.25008C2.76385 33.9165 2.29754 33.7234 1.95372 33.3795C1.6099 33.0357 1.41675 32.5694 1.41675 32.0832V28.4165H34.4167Z" stroke="#00303E" stroke-linecap="round" stroke-linejoin="round"/>
<path d="M6 28.4168C6.01782 26.7149 6.36976 25.0331 7.03583 23.4668C7.76917 22.0002 10.818 20.9918 14.6497 19.5728C15.6855 19.1897 15.515 16.4855 15.0567 15.9795C14.3263 15.1881 13.7716 14.2513 13.4288 13.2304C13.086 12.2096 12.9628 11.1278 13.0675 10.056C13.0018 9.37318 13.0775 8.68417 13.2898 8.03187C13.502 7.37958 13.8464 6.77799 14.3013 6.26458C14.7562 5.75118 15.312 5.33696 15.934 5.04774C16.556 4.75851 17.2309 4.60048 17.9167 4.5835C18.6024 4.60048 19.2773 4.75851 19.8993 5.04774C20.5213 5.33696 21.0771 5.75118 21.5321 6.26458C21.987 6.77799 22.3313 7.37958 22.5436 8.03187C22.7558 8.68417 22.8315 9.37318 22.7658 10.056C22.8708 11.1281 22.7478 12.2102 22.405 13.2314C22.0621 14.2526 21.5072 15.1897 20.7767 15.9813C20.3183 16.4873 20.1478 19.1915 21.1837 19.5747C25.0153 20.9937 28.066 22.0075 28.7975 23.4687C29.4633 25.0344 29.8153 26.7155 29.8333 28.4168H6Z" stroke="#00303E" stroke-linecap="round" stroke-linejoin="round"/>
</g>
<defs>
<clipPath id="clip0_153_1111">
<rect width="44" height="44" fill="white" transform="translate(0.5)"/>
</clipPath>
</defs>
</svg>
