<svg width="33" height="33" viewBox="0 0 33 33" fill="none" xmlns="http://www.w3.org/2000/svg">
<rect x="0.931641" y="0.5" width="32" height="32" rx="16" fill="#F6C07D"/>
<g clip-path="url(#clip0_4745_53618)">
<path d="M26.2034 14.7235L24.4109 12.9285V11.4969C24.4109 10.121 23.2926 9.00104 21.9184 9.00104H20.4884L18.6959 7.20688C17.7534 6.26437 16.1117 6.26437 15.1701 7.20688L13.3776 9.00104H11.9476C10.5726 9.00104 9.45505 10.1202 9.45505 11.4969V12.9285L7.66172 14.7235C6.69089 15.6969 6.69089 17.2794 7.66172 18.2527L9.45422 20.0477V21.4794C9.45422 22.8552 10.5726 23.9752 11.9467 23.9752H13.3767L15.1692 25.7694C15.6401 26.2402 16.2667 26.5002 16.9326 26.5002C17.5984 26.5002 18.2242 26.2402 18.6951 25.7694L20.4876 23.9752H21.9176C23.2926 23.9752 24.4101 22.856 24.4101 21.4794V20.0477L26.2034 18.2527C27.1742 17.2794 27.1742 15.6969 26.2034 14.7235ZM22.1017 15.0094L17.8901 19.1719C17.3784 19.6802 16.7042 19.9352 16.0309 19.9352C15.3576 19.9352 14.6867 19.681 14.1734 19.1744L12.0076 17.0919C11.6809 16.7677 11.6776 16.241 12.0017 15.9135C12.3267 15.5877 12.8526 15.5835 13.1809 15.9077L15.3459 17.9894C15.7234 18.3635 16.3376 18.3644 16.7159 17.9894L20.9284 13.826C21.2567 13.501 21.7834 13.5044 22.1076 13.8319C22.4317 14.1594 22.4284 14.6852 22.1017 15.0094Z" fill="#183445"/>
</g>
<defs>
<clipPath id="clip0_4745_53618">
<rect width="20" height="20" fill="white" transform="translate(6.93164 6.5)"/>
</clipPath>
</defs>
</svg>
