<svg width="20" height="20" viewBox="0 0 20 20" fill="none" xmlns="http://www.w3.org/2000/svg">
<rect width="20" height="20" rx="2" fill="#053333"/>
<g clip-path="url(#clip0_811_3407)">
<path d="M10 5.081C11.602 5.081 11.792 5.087 12.4245 5.116C13.0785 5.146 13.752 5.295 14.2285 5.7715C14.7095 6.2525 14.854 6.9195 14.884 7.5755C14.913 8.208 14.919 8.398 14.919 10C14.919 11.602 14.913 11.792 14.884 12.4245C14.8545 13.075 14.702 13.755 14.2285 14.2285C13.7475 14.7095 13.081 14.854 12.4245 14.884C11.792 14.913 11.602 14.919 10 14.919C8.398 14.919 8.208 14.913 7.5755 14.884C6.93 14.8545 6.241 14.6985 5.7715 14.2285C5.293 13.75 5.146 13.0765 5.116 12.4245C5.087 11.792 5.081 11.602 5.081 10C5.081 8.398 5.087 8.208 5.116 7.5755C5.1455 6.9275 5.2995 6.2435 5.7715 5.7715C6.2515 5.2915 6.921 5.146 7.5755 5.116C8.208 5.087 8.398 5.081 10 5.081ZM10 4C8.3705 4 8.166 4.007 7.526 4.036C6.5985 4.0785 5.6775 4.3365 5.007 5.007C4.334 5.68 4.0785 6.599 4.036 7.526C4.007 8.166 4 8.3705 4 10C4 11.6295 4.007 11.834 4.036 12.474C4.0785 13.4005 4.3375 14.324 5.007 14.993C5.6795 15.6655 6.6 15.9215 7.526 15.964C8.166 15.993 8.3705 16 10 16C11.6295 16 11.834 15.993 12.474 15.964C13.401 15.9215 14.323 15.663 14.993 14.993C15.6665 14.3195 15.9215 13.401 15.964 12.474C15.993 11.834 16 11.6295 16 10C16 8.3705 15.993 8.166 15.964 7.526C15.9215 6.5985 15.663 5.677 14.993 5.007C14.3215 4.3355 13.3985 4.078 12.474 4.036C11.834 4.007 11.6295 4 10 4Z" fill="white"/>
<path d="M9.99995 6.91895C8.29845 6.91895 6.91895 8.29845 6.91895 9.99995C6.91895 11.7014 8.29845 13.0809 9.99995 13.0809C11.7014 13.0809 13.0809 11.7014 13.0809 9.99995C13.0809 8.29845 11.7014 6.91895 9.99995 6.91895ZM9.99995 11.9999C8.89545 11.9999 7.99995 11.1044 7.99995 9.99995C7.99995 8.89545 8.89545 7.99995 9.99995 7.99995C11.1044 7.99995 11.9999 8.89545 11.9999 9.99995C11.9999 11.1044 11.1044 11.9999 9.99995 11.9999Z" fill="white"/>
<path d="M13.2029 7.51715C13.6006 7.51715 13.9229 7.19479 13.9229 6.79715C13.9229 6.3995 13.6006 6.07715 13.2029 6.07715C12.8053 6.07715 12.4829 6.3995 12.4829 6.79715C12.4829 7.19479 12.8053 7.51715 13.2029 7.51715Z" fill="white"/>
</g>
<defs>
<clipPath id="clip0_811_3407">
<rect width="12" height="12" fill="white" transform="translate(4 4)"/>
</clipPath>
</defs>
</svg>
