<svg width="20" height="20" viewBox="0 0 20 20" fill="none" xmlns="http://www.w3.org/2000/svg">
<g clip-path="url(#clip0_811_3402)">
<path d="M17.9383 16.8863H14.8187V12.0009C14.8187 10.8358 14.7979 9.33665 13.1962 9.33665C11.5715 9.33665 11.3225 10.6055 11.3225 11.9168V16.8863H8.20402V6.83945H11.1991V8.21203H11.2406C11.8516 7.16833 12.9866 6.54481 14.1952 6.58942C17.3573 6.58942 17.9393 8.66955 17.9393 11.3742L17.9383 16.8863ZM4.68401 5.46584C3.68393 5.46584 2.87369 4.65558 2.87369 3.65545C2.87369 2.65533 3.68393 1.84507 4.68401 1.84507C5.6841 1.84507 6.49433 2.65533 6.49433 3.65545C6.49433 4.65558 5.6841 5.46584 4.68401 5.46584ZM6.24327 16.8863H3.1206V6.83945H6.24327V16.8863ZM19.4934 -1.05156H1.55304C0.705455 -1.06089 0.0103743 -0.381349 0 0.466266V18.4809C0.0103743 19.3296 0.705455 20.0091 1.55304 19.9998H19.4934C20.343 20.0102 21.0412 19.3306 21.0526 18.4809V0.465228C21.0402 -0.384461 20.342 -1.064 19.4934 -1.05259" fill="#053333"/>
</g>
<defs>
<clipPath id="clip0_811_3402">
<rect width="20" height="20" rx="2" fill="white"/>
</clipPath>
</defs>
</svg>
