<svg width="180" height="48" viewBox="0 0 180 48" fill="none" xmlns="http://www.w3.org/2000/svg">
<path d="M24.8523 29.1746L23.908 25.8138C23.8827 25.7258 23.8352 25.6457 23.7699 25.581C23.7047 25.5163 23.6238 25.4692 23.535 25.4441L20.1441 24.5108C20.0331 24.4803 19.9349 24.4153 19.8641 24.3253C19.7932 24.2354 19.7533 24.1252 19.7504 24.0111C19.7475 23.897 19.7816 23.7849 19.8478 23.6915C19.914 23.5981 20.0087 23.5282 20.118 23.4922L27.7398 20.9742C27.8345 20.9432 27.936 20.9389 28.033 20.9618C28.1301 20.9847 28.2187 21.0339 28.2891 21.104C28.3595 21.174 28.4088 21.2621 28.4316 21.3583C28.4544 21.4546 28.4496 21.5552 28.418 21.6489L25.8774 29.2005C25.8418 29.3092 25.7718 29.4036 25.6777 29.4697C25.5835 29.5357 25.4704 29.5698 25.3551 29.5669C25.2398 29.564 25.1286 29.5242 25.0379 29.4535C24.9473 29.3828 24.8822 29.285 24.8523 29.1746Z" fill="#053333"/>
<path d="M44.0762 25.0747V22.8954H41.7051C41.4406 22.8956 41.1787 22.8441 40.9343 22.7438C40.6899 22.6436 40.4679 22.4965 40.2809 22.3111L26.6755 8.82642C26.6125 8.76449 26.5626 8.69078 26.5286 8.60957C26.4945 8.52835 26.4771 8.44125 26.4773 8.35332L26.5112 0.662189C26.5122 0.530815 26.5522 0.402646 26.6264 0.293764C26.7006 0.184881 26.8055 0.100133 26.9281 0.0501526C27.0507 0.000172435 27.1855 -0.0128139 27.3155 0.0128228C27.4455 0.0384595 27.565 0.101577 27.6589 0.194258L46.7785 19.214L50.1537 22.5593C50.5309 22.9339 50.7427 23.4416 50.7427 23.9708C50.7427 24.5001 50.5309 25.0077 50.1537 25.3824L27.638 47.7888C27.5444 47.8829 27.4246 47.9472 27.2939 47.9734C27.1633 47.9997 27.0277 47.9868 26.9045 47.9363C26.7812 47.8857 26.676 47.8 26.6023 47.6899C26.5285 47.5798 26.4895 47.4504 26.4903 47.3183V39.6814C26.4898 39.5055 26.5592 39.3365 26.6834 39.2109L40.2862 25.6642C40.473 25.4775 40.6953 25.3293 40.9401 25.2282C41.185 25.127 41.4477 25.0749 41.713 25.0747H44.0762Z" fill="#053333"/>
<path d="M6.65093 25.0746V22.8952H9.02197C9.28685 22.8955 9.5492 22.844 9.79402 22.7438C10.0388 22.6435 10.2613 22.4965 10.4488 22.311L24.062 8.82627C24.1875 8.70026 24.2578 8.53025 24.2576 8.35317L24.2263 0.662035C24.2244 0.531712 24.184 0.404808 24.1101 0.297004C24.0361 0.189201 23.932 0.105222 23.8105 0.0554436C23.6889 0.00566564 23.5553 -0.00772953 23.4262 0.0169132C23.2971 0.041556 23.178 0.103157 23.0838 0.194104L3.95906 19.2138L0.589012 22.5721C0.21183 22.9467 0 23.4544 0 23.9836C0 24.5129 0.21183 25.0205 0.589012 25.3952L23.1073 47.8016C23.2009 47.8957 23.3207 47.96 23.4514 47.9862C23.5821 48.0125 23.7177 47.9995 23.8409 47.949C23.9641 47.8985 24.0693 47.8127 24.1431 47.7027C24.2169 47.5926 24.2558 47.4632 24.255 47.331V39.6813C24.2545 39.5051 24.1843 39.3361 24.0594 39.2108L10.4566 25.664C10.2693 25.4772 10.0466 25.3289 9.80132 25.2277C9.556 25.1266 9.2929 25.0745 9.02718 25.0746H6.65093Z" fill="#053333"/>
<path d="M77.1404 18.1926C77.1222 18.6502 77.1222 19.1078 77.1039 19.5654C77.01 21.7034 75.9041 22.7634 73.8017 22.7634H64.8366C62.7343 22.7634 61.6466 21.9594 61.5918 20.3513C61.537 18.7433 61.5005 17.4636 61.5005 16.4735C61.5005 15.4833 61.5187 14.5345 61.5553 13.6297C61.6466 11.8019 62.7343 10.8867 64.8366 10.8867H73.8017C75.9041 10.8867 77.01 11.9467 77.1039 14.0873L77.1404 15.4394H74.3912V14.5604C74.3912 13.9399 74.0782 13.6297 73.4704 13.6297H65.1705C64.5601 13.6297 64.2471 13.9399 64.2471 14.5604V19.1078C64.2471 19.7102 64.5601 20.023 65.1705 20.023H73.4704C74.0782 20.023 74.3912 19.7283 74.3912 19.144V18.1926H77.1404Z" fill="#053333"/>
<path d="M81.4025 22.7634C79.3001 22.7634 78.2098 21.9594 78.155 20.3513C78.1002 18.7433 78.0637 17.4636 78.0637 16.4735C78.0637 15.4833 78.082 14.5345 78.1185 13.6297C78.2098 11.8019 79.3001 10.8867 81.4025 10.8867H90.3649C92.4699 10.8867 93.5576 11.5641 93.6306 12.9342C93.7037 14.3044 93.7219 15.4936 93.7219 16.4812C93.7219 17.4688 93.7037 18.4925 93.6489 19.5835C93.5576 21.7215 92.4699 22.7815 90.3649 22.7815L81.4025 22.7634ZM90.0337 20.0333C90.644 20.0333 90.957 19.7386 90.957 19.1544V14.5552C90.957 13.9347 90.644 13.6245 90.0337 13.6245H81.7337C81.126 13.6245 80.8104 13.9347 80.8104 14.5552V19.1078C80.8104 19.7102 81.126 20.023 81.7337 20.023L90.0337 20.0333Z" fill="#053333"/>
<path d="M104.403 20.0336L110.325 10.8922H112.685C112.962 10.8922 113.092 11.0395 113.092 11.3498V22.3991C113.092 22.637 112.962 22.7637 112.685 22.7637H110.325V15.8972L105.916 22.7688H101.821L97.4234 15.8972V22.7637H95.0758C94.7993 22.7637 94.6506 22.6189 94.6506 22.3087V11.3394C94.6506 11.0292 94.7811 10.8818 95.0575 10.8818H97.4051L103.371 20.0336H104.403Z" fill="#053333"/>
<path d="M116.78 20.0332V22.7735H114.198C114.07 22.7735 114.015 22.7193 114.015 22.5926V13.6062C114.015 11.7759 114.937 10.8616 116.78 10.8633H126.335C128.568 10.8633 129.692 12.3989 129.692 15.4702C129.692 18.4691 128.568 19.9841 126.335 20.0228L116.78 20.0332ZM126.004 17.2902C126.611 17.2902 126.924 16.9981 126.924 16.3931V14.5369C126.924 13.9346 126.611 13.6243 126.004 13.6243H117.704C117.096 13.6243 116.78 13.9346 116.78 14.5369V16.3828C116.78 16.9878 117.096 17.2799 117.704 17.2799L126.004 17.2902Z" fill="#053333"/>
<path d="M146.255 20.0595C146.255 21.8692 145.334 22.7637 143.509 22.7637H133.954C131.721 22.7637 130.597 21.7037 130.597 19.5657V18.1929C130.597 16.0549 131.721 14.995 133.954 14.995H143.509V14.5555C143.509 13.935 143.196 13.6248 142.585 13.6248H134.562C133.954 13.6248 133.641 13.935 133.641 14.5374H130.873V13.6248C130.873 11.7979 131.796 10.8836 133.641 10.8818H142.585C145.04 10.8818 146.276 11.797 146.276 13.6248L146.255 20.0595ZM133.364 19.1081C133.364 19.7105 133.677 20.0233 134.285 20.0233H142.585C143.196 20.0233 143.509 19.7286 143.509 19.1443V18.1929C143.509 17.5906 143.196 17.2803 142.585 17.2803H134.285C133.677 17.2803 133.364 17.5906 133.364 18.1929V19.1081Z" fill="#053333"/>
<path d="M162.876 19.1081C162.876 21.5408 161.752 22.7637 159.519 22.7637H150.554C148.324 22.7637 147.218 21.6494 147.218 19.4183V19.1081H149.964C149.964 19.7105 150.277 20.0233 150.888 20.0233H159.188C159.795 20.0233 160.108 19.7105 160.108 19.1081C160.108 18.5057 159.795 18.1929 159.188 18.1929H149.964C148.12 18.1929 147.197 16.9882 147.197 14.5555C147.197 12.1228 148.12 10.8818 149.964 10.8818H159.519C161.621 10.8818 162.727 11.9418 162.839 14.0824L162.858 14.5193L160.108 14.5555C160.108 13.935 159.795 13.6248 159.188 13.6248H150.895C150.285 13.6248 149.972 13.935 149.972 14.5555C149.972 15.1759 150.285 15.4526 150.895 15.4526H159.527C161.752 15.4526 162.876 16.6728 162.876 19.1081Z" fill="#053333"/>
<path d="M179.478 19.1081C179.478 21.5408 178.352 22.7637 176.121 22.7637H167.156C164.924 22.7637 163.818 21.6494 163.818 19.4183V19.1081H166.567C166.567 19.7105 166.88 20.0233 167.488 20.0233H175.788C176.398 20.0233 176.711 19.7105 176.711 19.1081C176.711 18.5057 176.398 18.1929 175.788 18.1929H166.567C164.723 18.1929 163.799 16.9882 163.799 14.5555C163.799 12.1228 164.72 10.8818 166.567 10.8818H176.121C178.224 10.8818 179.33 11.9418 179.439 14.0824L179.46 14.5193L176.719 14.5555C176.719 13.935 176.406 13.6248 175.795 13.6248H167.488C166.88 13.6248 166.567 13.935 166.567 14.5555C166.567 15.1759 166.88 15.4526 167.488 15.4526H176.121C178.352 15.4526 179.478 16.6728 179.478 19.1081Z" fill="#053333"/>
<path d="M77.177 33.6985C77.177 36.1313 76.0528 37.3567 73.82 37.3567H64.8549C62.6247 37.3567 61.5187 36.2398 61.5187 34.0113V33.6985H64.2654C64.2654 34.3035 64.5784 34.6137 65.1888 34.6137H73.4887C74.0964 34.6137 74.4095 34.3035 74.4095 33.6985C74.4095 33.0936 74.0964 32.7859 73.4887 32.7859H64.2654C62.4213 32.7859 61.5005 31.5786 61.5005 29.1485C61.5005 26.7183 62.4213 25.4619 64.2654 25.4619H73.82C75.9223 25.4619 77.0309 26.5219 77.1404 28.6625L77.1587 29.0994L74.4095 29.1381C74.4095 28.5151 74.0964 28.2049 73.4887 28.2049H65.1888C64.5784 28.2049 64.2654 28.5151 64.2654 29.1381C64.2654 29.7612 64.5784 30.0326 65.1888 30.0326H73.82C76.0528 30.043 77.177 31.2684 77.177 33.6985Z" fill="#053333"/>
<path d="M93.4089 25.4623C93.6489 25.4623 93.7793 25.5734 93.7793 25.8113V33.6885C93.7793 36.1213 92.543 37.3467 90.0885 37.3467H81.7885C79.3366 37.3467 78.1003 36.1213 78.1003 33.6885V25.8294C78.094 25.7799 78.0991 25.7297 78.1153 25.6825C78.1316 25.6352 78.1584 25.5923 78.1939 25.5569C78.2293 25.5216 78.2724 25.4946 78.3199 25.4782C78.3674 25.4618 78.4181 25.4564 78.468 25.4623H80.8678V33.6885C80.8678 34.2935 81.1808 34.6037 81.7885 34.6037H90.0885C90.6988 34.6037 91.0118 34.2935 91.0118 33.6885V25.4623H93.4089Z" fill="#053333"/>
<path d="M110.379 37.3541H107.335L105.345 33.696H97.4678V37.3541H94.7029V25.9273C94.7029 25.6171 94.8307 25.4697 95.0707 25.4697H107.022C109.125 25.4697 110.176 26.8227 110.176 29.5286V29.6372C110.176 31.7416 109.532 33.0394 108.24 33.4969L110.379 37.3541ZM106.691 30.9556C107.299 30.9556 107.614 30.6428 107.614 30.0405V29.146C107.614 28.5229 107.299 28.2127 106.691 28.2127H98.0208C97.653 28.2127 97.4678 28.3781 97.4678 28.6884V30.4799C97.4678 30.7902 97.653 30.9556 98.0208 30.9556H106.691Z" fill="#053333"/>
<path d="M118.995 33.6985L123.734 25.4619H126.982L120.116 37.3541H116.874L110.011 25.4619H113.259L117.998 33.6882L118.995 33.6985Z" fill="#053333"/>
<path d="M129.914 32.7862V33.6988C129.914 34.3038 130.229 34.614 130.837 34.614H139.137C139.747 34.614 140.06 34.3038 140.06 33.6988L142.825 33.7169C142.825 36.1315 141.701 37.3363 139.468 37.357H130.506C128.403 37.357 127.313 36.6615 127.258 35.2888C127.204 33.916 127.167 32.7474 127.167 31.7599C127.167 30.7723 127.185 29.7305 127.222 28.6576C127.313 26.517 128.403 25.457 130.506 25.457H139.468C141.701 25.457 142.825 26.8298 142.825 29.5702C142.825 31.7108 141.701 32.7707 139.434 32.7707L129.914 32.7862ZM130.8 30.9404L139.147 30.9585C139.758 30.9585 140.071 30.6456 140.071 30.0433V29.1307C140.071 28.5257 139.758 28.2155 139.147 28.2155H130.837C130.229 28.2155 129.914 28.5076 129.914 29.11V30.0433C129.914 30.6456 130.211 30.9404 130.811 30.9404H130.8Z" fill="#053333"/>
<path d="M143.07 25.4619H146.962L151.462 30.9478H152.015L156.514 25.4619H160.427L153.139 34.2285V37.3541H150.76C150.499 37.3541 150.371 37.261 150.371 37.08V34.2363L143.07 25.4619Z" fill="#053333"/>
</svg>
