<svg width="120" height="32" viewBox="0 0 120 32" fill="none" xmlns="http://www.w3.org/2000/svg">
<path d="M16.5693 19.45L15.9398 17.2094C15.923 17.1508 15.8913 17.0974 15.8478 17.0542C15.8042 17.0111 15.7503 16.9797 15.6912 16.963L13.4306 16.3408C13.3566 16.3205 13.2911 16.2771 13.2438 16.2171C13.1966 16.1572 13.17 16.0837 13.1681 16.0076C13.1661 15.9316 13.1889 15.8569 13.233 15.7946C13.2772 15.7323 13.3403 15.6857 13.4132 15.6617L18.4943 13.983C18.5575 13.9623 18.6252 13.9595 18.6898 13.9748C18.7545 13.99 18.8136 14.0229 18.8606 14.0696C18.9075 14.1162 18.9404 14.175 18.9555 14.2391C18.9707 14.3033 18.9676 14.3704 18.9464 14.4329L17.2527 19.4672C17.229 19.5397 17.1823 19.6027 17.1196 19.6467C17.0568 19.6907 16.9814 19.7135 16.9045 19.7115C16.8277 19.7096 16.7535 19.6831 16.6931 19.6359C16.6327 19.5888 16.5893 19.5236 16.5693 19.45Z" fill="#E7FF2A"/>
<path d="M29.3849 16.7165V15.2636H27.8042C27.6279 15.2637 27.4533 15.2294 27.2904 15.1626C27.1274 15.0957 26.9794 14.9977 26.8548 14.8741L17.7845 5.88428C17.7425 5.84299 17.7092 5.79385 17.6865 5.73971C17.6638 5.68557 17.6522 5.6275 17.6523 5.56888L17.675 0.441459C17.6756 0.353877 17.7023 0.268431 17.7518 0.195842C17.8012 0.123254 17.8712 0.0667552 17.9529 0.0334351C18.0346 0.000114957 18.1245 -0.00854261 18.2111 0.00854853C18.2978 0.0256397 18.3774 0.0677183 18.4401 0.129505L31.1865 12.8093L33.4366 15.0395C33.6881 15.2893 33.8293 15.6277 33.8293 15.9806C33.8293 16.3334 33.6881 16.6718 33.4366 16.9216L18.4262 31.8592C18.3638 31.9219 18.2839 31.9648 18.1968 31.9823C18.1097 31.9998 18.0193 31.9912 17.9371 31.9575C17.855 31.9238 17.7848 31.8666 17.7357 31.7933C17.6865 31.7199 17.6605 31.6336 17.661 31.5455V26.4543C17.6607 26.337 17.7069 26.2244 17.7897 26.1406L26.8583 17.1095C26.9828 16.985 27.131 16.8862 27.2942 16.8188C27.4575 16.7513 27.6326 16.7166 27.8095 16.7165H29.3849Z" fill="#E7FF2A"/>
<path d="M4.43396 16.7166V15.2636H6.01465C6.19124 15.2638 6.36614 15.2295 6.52935 15.1627C6.69256 15.0959 6.84088 14.9978 6.96584 14.8741L16.0413 5.88434C16.125 5.80034 16.1719 5.687 16.1718 5.56894L16.1509 0.441519C16.1496 0.354637 16.1226 0.270035 16.0734 0.198166C16.0241 0.126297 15.9547 0.0703104 15.8736 0.0371251C15.7926 0.00393985 15.7036 -0.00499026 15.6175 0.0114382C15.5314 0.0278667 15.452 0.0689339 15.3892 0.129565L2.63938 12.8094L0.392675 15.0482C0.14122 15.298 0 15.6364 0 15.9892C0 16.3421 0.14122 16.6805 0.392675 16.9303L15.4049 31.8679C15.4673 31.9306 15.5472 31.9735 15.6343 31.991C15.7214 32.0085 15.8118 31.9999 15.8939 31.9662C15.9761 31.9325 16.0462 31.8753 16.0954 31.8019C16.1446 31.7285 16.1706 31.6423 16.17 31.5542V26.4543C16.1697 26.3369 16.1229 26.2242 16.0396 26.1407L6.97106 17.1095C6.84623 16.9849 6.69777 16.8861 6.53422 16.8186C6.37067 16.7512 6.19527 16.7165 6.01812 16.7166H4.43396Z" fill="#E7FF2A"/>
<path d="M51.4266 12.1287C51.4145 12.4337 51.4145 12.7388 51.4023 13.0439C51.3397 14.4692 50.6024 15.1758 49.2008 15.1758H43.2241C41.8225 15.1758 41.0974 14.6398 41.0609 13.5678C41.0243 12.4958 41 11.6426 41 10.9825C41 10.3224 41.0122 9.68992 41.0365 9.08669C41.0974 7.86818 41.8225 7.25806 43.2241 7.25806H49.2008C50.6024 7.25806 51.3397 7.96469 51.4023 9.39175L51.4266 10.2931H49.5938V9.70715C49.5938 9.29351 49.3851 9.08669 48.98 9.08669H43.4467C43.0398 9.08669 42.8311 9.29351 42.8311 9.70715V12.7388C42.8311 13.1404 43.0398 13.3489 43.4467 13.3489H48.98C49.3851 13.3489 49.5938 13.1524 49.5938 12.7629V12.1287H51.4266Z" fill="white"/>
<path d="M54.2688 15.1758C52.8672 15.1758 52.1404 14.6398 52.1038 13.5678C52.0673 12.4958 52.043 11.6426 52.043 10.9825C52.043 10.3224 52.0551 9.68992 52.0795 9.08669C52.1403 7.86818 52.8672 7.25806 54.2688 7.25806H60.2438C61.6471 7.25806 62.3722 7.70961 62.4209 8.62307C62.4696 9.53653 62.4818 10.3293 62.4818 10.9877C62.4818 11.6461 62.4696 12.3286 62.4331 13.0559C62.3722 14.4813 61.6471 15.1879 60.2438 15.1879L54.2688 15.1758ZM60.0229 13.3558C60.4298 13.3558 60.6385 13.1593 60.6385 12.7698V9.70371C60.6385 9.29007 60.4298 9.08325 60.0229 9.08325H54.4896C54.0845 9.08325 53.8741 9.29007 53.8741 9.70371V12.7388C53.8741 13.1404 54.0845 13.3489 54.4896 13.3489L60.0229 13.3558Z" fill="white"/>
<path d="M69.6034 13.3558L73.5508 7.26153H75.1245C75.3089 7.26153 75.3958 7.35977 75.3958 7.56659V14.9328C75.3958 15.0914 75.3089 15.1759 75.1245 15.1759H73.5508V10.5982L70.612 15.1793H67.8819L64.95 10.5982V15.1759H63.385C63.2007 15.1759 63.1016 15.0793 63.1016 14.8725V7.5597C63.1016 7.35288 63.1885 7.25464 63.3728 7.25464H64.9379L68.9148 13.3558H69.6034Z" fill="white"/>
<path d="M77.8511 13.3557V15.1826H76.1295C76.0443 15.1826 76.0078 15.1464 76.0078 15.062V9.07107C76.0078 7.85083 76.6222 7.24128 77.8511 7.24243H84.2208C85.7093 7.24243 86.4588 8.26619 86.4588 10.3137C86.4588 12.313 85.7093 13.3229 84.2208 13.3488L77.8511 13.3557ZM84 11.5271C84.4051 11.5271 84.6138 11.3323 84.6138 10.929V9.69153C84.6138 9.28995 84.4051 9.08313 84 9.08313H78.4667C78.0615 9.08313 77.8511 9.28995 77.8511 9.69153V10.9221C77.8511 11.3254 78.0615 11.5202 78.4667 11.5202L84 11.5271Z" fill="white"/>
<path d="M97.5013 13.373C97.5013 14.5795 96.8875 15.1758 95.6702 15.1758H89.3005C87.812 15.1758 87.0625 14.4692 87.0625 13.0438V12.1286C87.0625 10.7033 87.812 9.99667 89.3005 9.99667H95.6702V9.70368C95.6702 9.29003 95.4616 9.08321 95.0546 9.08321H89.7057C89.3005 9.08321 89.0918 9.29003 89.0918 9.69161H87.2468V9.08321C87.2468 7.86527 87.8618 7.25573 89.0918 7.25458H95.0546C96.691 7.25458 97.5152 7.8647 97.5152 9.08321L97.5013 13.373ZM88.9075 12.7388C88.9075 13.1403 89.1162 13.3489 89.5214 13.3489H95.0546C95.4616 13.3489 95.6702 13.1524 95.6702 12.7629V12.1286C95.6702 11.7271 95.4616 11.5202 95.0546 11.5202H89.5214C89.1162 11.5202 88.9075 11.7271 88.9075 12.1286V12.7388Z" fill="white"/>
<path d="M108.586 12.7388C108.586 14.3606 107.836 15.1759 106.348 15.1759H100.371C98.884 15.1759 98.1467 14.433 98.1467 12.9456V12.7388H99.9778C99.9778 13.1404 100.186 13.3489 100.593 13.3489H106.127C106.532 13.3489 106.741 13.1404 106.741 12.7388C106.741 12.3372 106.532 12.1287 106.127 12.1287H99.9778C98.7484 12.1287 98.1328 11.3256 98.1328 9.70374C98.1328 8.08192 98.7484 7.25464 99.9778 7.25464H106.348C107.749 7.25464 108.486 7.96127 108.561 9.38833L108.573 9.67961L106.741 9.70374C106.741 9.2901 106.532 9.08327 106.127 9.08327H100.599C100.192 9.08327 99.983 9.2901 99.983 9.70374C99.983 10.1174 100.192 10.3018 100.599 10.3018H106.353C107.836 10.3018 108.586 11.1153 108.586 12.7388Z" fill="white"/>
<path d="M119.652 12.7388C119.652 14.3606 118.901 15.1758 117.414 15.1758H111.437C109.949 15.1758 109.211 14.433 109.211 12.9456V12.7388H111.044C111.044 13.1403 111.253 13.3489 111.658 13.3489H117.191C117.598 13.3489 117.807 13.1403 117.807 12.7388C117.807 12.3372 117.598 12.1286 117.191 12.1286H111.044C109.815 12.1286 109.199 11.3255 109.199 9.70368C109.199 8.08186 109.813 7.25458 111.044 7.25458H117.414C118.816 7.25458 119.553 7.96121 119.626 9.38827L119.64 9.67955L117.812 9.70368C117.812 9.29003 117.603 9.08321 117.197 9.08321H111.658C111.253 9.08321 111.044 9.29003 111.044 9.70368C111.044 10.1173 111.253 10.3017 111.658 10.3017H117.414C118.901 10.3017 119.652 11.1152 119.652 12.7388Z" fill="white"/>
<path d="M51.451 22.4662C51.451 24.0881 50.7015 24.905 49.213 24.905H43.2363C41.7495 24.905 41.0122 24.1604 41.0122 22.6748V22.4662H42.8433C42.8433 22.8695 43.0519 23.0764 43.4589 23.0764H48.9921C49.3973 23.0764 49.606 22.8695 49.606 22.4662C49.606 22.0629 49.3973 21.8578 48.9921 21.8578H42.8433C41.6138 21.8578 41 21.053 41 19.4329C41 17.8128 41.6138 16.9752 42.8433 16.9752H49.213C50.6146 16.9752 51.3536 17.6818 51.4266 19.1089L51.4388 19.4001L49.606 19.426C49.606 19.0106 49.3973 18.8038 48.9921 18.8038H43.4589C43.0519 18.8038 42.8433 19.0106 42.8433 19.426C42.8433 19.8413 43.0519 20.0223 43.4589 20.0223H49.213C50.7015 20.0292 51.451 20.8461 51.451 22.4662Z" fill="white"/>
<path d="M62.2739 16.9751C62.4339 16.9751 62.5209 17.0492 62.5209 17.2078V22.4593C62.5209 24.0811 61.6966 24.898 60.0603 24.898H54.527C52.8924 24.898 52.0681 24.0811 52.0681 22.4593V17.2198C52.0639 17.1869 52.0674 17.1534 52.0782 17.1219C52.089 17.0904 52.1069 17.0618 52.1305 17.0382C52.1542 17.0146 52.1829 16.9967 52.2146 16.9858C52.2463 16.9748 52.28 16.9712 52.3133 16.9751H53.9131V22.4593C53.9131 22.8626 54.1218 23.0694 54.527 23.0694H60.0603C60.4672 23.0694 60.6759 22.8626 60.6759 22.4593V16.9751H62.2739Z" fill="white"/>
<path d="M73.5838 24.9032H71.5545L70.2277 22.4644H64.9761V24.9032H63.1328V17.2853C63.1328 17.0785 63.218 16.9802 63.378 16.9802H71.3458C72.7474 16.9802 73.4482 17.8822 73.4482 19.6861V19.7585C73.4482 21.1614 73.0186 22.0266 72.1579 22.3317L73.5838 24.9032ZM71.1249 20.6375C71.5301 20.6375 71.7405 20.429 71.7405 20.0274V19.431C71.7405 19.0157 71.5301 18.8089 71.1249 18.8089H65.3447C65.0995 18.8089 64.9761 18.9192 64.9761 19.126V20.3204C64.9761 20.5272 65.0995 20.6375 65.3447 20.6375H71.1249Z" fill="white"/>
<path d="M79.3287 22.4662L82.4884 16.9752H84.6533L80.0765 24.9033H77.915L73.3398 16.9752H75.5048L78.6645 22.4593L79.3287 22.4662Z" fill="white"/>
<path d="M86.6084 21.8576V22.466C86.6084 22.8693 86.8189 23.0761 87.224 23.0761H92.7573C93.1642 23.0761 93.3729 22.8693 93.3729 22.466L95.2162 22.4781C95.2162 24.0878 94.4667 24.891 92.9782 24.9048H87.0032C85.6016 24.9048 84.8747 24.4412 84.8382 23.526C84.8017 22.6108 84.7773 21.8318 84.7773 21.1734C84.7773 20.515 84.7895 19.8204 84.8139 19.1052C84.8747 17.6781 85.6016 16.9715 87.0032 16.9715H92.9782C94.4667 16.9715 95.2162 17.8867 95.2162 19.7136C95.2162 21.1406 94.4667 21.8473 92.9555 21.8473L86.6084 21.8576ZM87.1997 20.627L92.7643 20.6391C93.1712 20.6391 93.3798 20.4306 93.3798 20.029V19.4206C93.3798 19.0173 93.1712 18.8105 92.7643 18.8105H87.224C86.8189 18.8105 86.6084 19.0052 86.6084 19.4068V20.029C86.6084 20.4306 86.8067 20.627 87.2066 20.627H87.1997Z" fill="white"/>
<path d="M95.3789 16.9751H97.9734L100.973 20.6324H101.342L104.341 16.9751H106.95L102.091 22.8195V24.9032H100.505C100.331 24.9032 100.246 24.8412 100.246 24.7205V22.8247L95.3789 16.9751Z" fill="white"/>
</svg>
