<svg width="40" height="40" viewBox="0 0 40 40" fill="none" xmlns="http://www.w3.org/2000/svg">
<rect width="40" height="40" rx="10" fill="#001B2B"/>
<g clip-path="url(#clip0_136_390)">
<path d="M29.5833 18.75C29.5833 18.529 29.4955 18.317 29.3392 18.1607C29.1829 18.0044 28.971 17.9166 28.75 17.9166H23.6083L26.1791 13.4641C26.2896 13.2727 26.3196 13.0453 26.2624 12.8318C26.2052 12.6183 26.0655 12.4363 25.8741 12.3258L23.7075 11.0758C23.5161 10.9653 23.2886 10.9354 23.0751 10.9926C22.8616 11.0498 22.6796 11.1894 22.5691 11.3808L20 15.8333L17.4291 11.3783C17.3186 11.1869 17.1366 11.0473 16.9231 10.9901C16.7096 10.9329 16.4822 10.9628 16.2908 11.0733L14.1241 12.3233C13.9327 12.4338 13.7931 12.6158 13.7359 12.8293C13.6787 13.0428 13.7086 13.2702 13.8191 13.4616L16.3916 17.9166H11.25C11.0289 17.9166 10.817 18.0044 10.6607 18.1607C10.5044 18.317 10.4166 18.529 10.4166 18.75V21.25C10.4166 21.471 10.5044 21.683 10.6607 21.8392C10.817 21.9955 11.0289 22.0833 11.25 22.0833H16.3916L13.8208 26.5333C13.7103 26.7247 13.6803 26.9522 13.7375 27.1656C13.7947 27.3791 13.9344 27.5611 14.1258 27.6716L16.2925 28.9216C16.4839 29.0321 16.7113 29.0621 16.9248 29.0049C17.1383 28.9477 17.3203 28.808 17.4308 28.6166L20 24.1666L22.5708 28.6191C22.6813 28.8105 22.8633 28.9502 23.0768 29.0074C23.2903 29.0646 23.5177 29.0346 23.7091 28.9241L25.8758 27.6741C26.0672 27.5636 26.2068 27.3816 26.264 27.1681C26.3212 26.9547 26.2913 26.7272 26.1808 26.5358L23.6083 22.0833H28.75C28.971 22.0833 29.1829 21.9955 29.3392 21.8392C29.4955 21.683 29.5833 21.471 29.5833 21.25V18.75Z" fill="#DFF9FF"/>
<path d="M24.8783 11.75L23.7116 11.0741C23.5202 10.9636 23.2928 10.9337 23.0793 10.9909C22.8658 11.0481 22.6838 11.1878 22.5733 11.3791L20 15.8333L17.4291 11.3783C17.3186 11.1869 17.1366 11.0473 16.9231 10.9901C16.7096 10.9329 16.4822 10.9628 16.2908 11.0733L14.1241 12.3233C13.9327 12.4338 13.7931 12.6158 13.7359 12.8293C13.6787 13.0428 13.7086 13.2702 13.8191 13.4616L16.3916 17.9166H11.25C11.0289 17.9166 10.817 18.0044 10.6607 18.1607C10.5044 18.317 10.4166 18.529 10.4166 18.75V21.25C10.4166 21.471 10.5044 21.683 10.6607 21.8392C10.817 21.9955 11.0289 22.0833 11.25 22.0833H16.3916L13.8208 26.5333C13.7659 26.6281 13.7303 26.7328 13.716 26.8414C13.7016 26.95 13.7088 27.0603 13.7371 27.1661C13.7655 27.2719 13.8144 27.3711 13.8811 27.458C13.9478 27.5449 14.0309 27.6178 14.1258 27.6725L15.2091 28.2991L24.8783 11.75Z" fill="white"/>
<path d="M29.5833 18.75C29.5833 18.529 29.4955 18.317 29.3392 18.1607C29.1829 18.0044 28.971 17.9166 28.75 17.9166H23.6083L26.1791 13.4641C26.2896 13.2727 26.3196 13.0453 26.2624 12.8318C26.2052 12.6183 26.0655 12.4363 25.8741 12.3258L23.7075 11.0758C23.5161 10.9653 23.2886 10.9354 23.0751 10.9926C22.8616 11.0498 22.6796 11.1894 22.5691 11.3808L20 15.8333L17.4291 11.3783C17.3186 11.1869 17.1366 11.0473 16.9231 10.9901C16.7096 10.9329 16.4822 10.9628 16.2908 11.0733L14.1241 12.3233C13.9327 12.4338 13.7931 12.6158 13.7359 12.8293C13.6787 13.0428 13.7086 13.2702 13.8191 13.4616L16.3916 17.9166H11.25C11.0289 17.9166 10.817 18.0044 10.6607 18.1607C10.5044 18.317 10.4166 18.529 10.4166 18.75V21.25C10.4166 21.471 10.5044 21.683 10.6607 21.8392C10.817 21.9955 11.0289 22.0833 11.25 22.0833H16.3916L13.8208 26.5333C13.7103 26.7247 13.6803 26.9522 13.7375 27.1656C13.7947 27.3791 13.9344 27.5611 14.1258 27.6716L16.2925 28.9216C16.4839 29.0321 16.7113 29.0621 16.9248 29.0049C17.1383 28.9477 17.3203 28.808 17.4308 28.6166L20 24.1666L22.5708 28.6191C22.6813 28.8105 22.8633 28.9502 23.0768 29.0074C23.2903 29.0646 23.5177 29.0346 23.7091 28.9241L25.8758 27.6741C26.0672 27.5636 26.2068 27.3816 26.264 27.1681C26.3212 26.9547 26.2913 26.7272 26.1808 26.5358L23.6083 22.0833H28.75C28.971 22.0833 29.1829 21.9955 29.3392 21.8392C29.4955 21.683 29.5833 21.471 29.5833 21.25V18.75Z" stroke="#00303E" stroke-linecap="round" stroke-linejoin="round"/>
</g>
<defs>
<clipPath id="clip0_136_390">
<rect width="20" height="20" fill="white" transform="translate(10 10)"/>
</clipPath>
</defs>
</svg>
