<svg width="20" height="20" viewBox="0 0 20 20" fill="none" xmlns="http://www.w3.org/2000/svg">
<rect width="20" height="20" rx="4" fill="white" fill-opacity="0.2"/>
<path d="M16.1038 6.35378L8.10378 14.3538C8.05735 14.4003 8.0022 14.4372 7.9415 14.4623C7.88081 14.4875 7.81574 14.5004 7.75003 14.5004C7.68433 14.5004 7.61926 14.4875 7.55856 14.4623C7.49786 14.4372 7.44272 14.4003 7.39628 14.3538L3.89628 10.8538C3.80246 10.76 3.74976 10.6327 3.74976 10.5C3.74976 10.3674 3.80246 10.2401 3.89628 10.1463C3.9901 10.0525 4.11735 9.99976 4.25003 9.99976C4.38272 9.99976 4.50996 10.0525 4.60378 10.1463L7.75003 13.2932L15.3963 5.64628C15.4901 5.55246 15.6174 5.49976 15.75 5.49976C15.8827 5.49976 16.01 5.55246 16.1038 5.64628C16.1976 5.7401 16.2503 5.86735 16.2503 6.00003C16.2503 6.13272 16.1976 6.25996 16.1038 6.35378Z" fill="white"/>
</svg>
