<svg width="33" height="32" viewBox="0 0 33 32" fill="none" xmlns="http://www.w3.org/2000/svg">
<rect x="0.5" width="32" height="32" rx="16" fill="#E79338"/>
<path d="M20.6922 16.4423L14.4422 22.6923C14.3841 22.7504 14.3152 22.7964 14.2393 22.8278C14.1634 22.8593 14.0821 22.8755 14 22.8755C13.9179 22.8755 13.8365 22.8593 13.7607 22.8278C13.6848 22.7964 13.6159 22.7504 13.5578 22.6923C13.4997 22.6342 13.4537 22.5653 13.4222 22.4894C13.3908 22.4135 13.3746 22.3322 13.3746 22.2501C13.3746 22.168 13.3908 22.0867 13.4222 22.0108C13.4537 21.9349 13.4997 21.866 13.5578 21.8079L19.3664 16.0001L13.5578 10.1923C13.4405 10.075 13.3746 9.91596 13.3746 9.7501C13.3746 9.58425 13.4405 9.42519 13.5578 9.30792C13.6751 9.19064 13.8341 9.12476 14 9.12476C14.1658 9.12476 14.3249 9.19064 14.4422 9.30792L20.6922 15.5579C20.7503 15.616 20.7964 15.6849 20.8278 15.7608C20.8593 15.8366 20.8755 15.918 20.8755 16.0001C20.8755 16.0822 20.8593 16.1636 20.8278 16.2394C20.7964 16.3153 20.7503 16.3842 20.6922 16.4423Z" fill="white"/>
</svg>
