<svg width="32" height="33" viewBox="0 0 32 33" fill="none" xmlns="http://www.w3.org/2000/svg">
<g clip-path="url(#clip0_29_38)">
<path d="M2 5.53317V15.7158C2.03918 19.0805 3.11144 22.3518 5.07158 25.0868C7.03172 27.8218 9.78503 29.8883 12.9587 31.0065L14.4533 31.5585C15.4518 31.9252 16.5482 31.9252 17.5467 31.5585L19.0413 31.0065C22.215 29.8883 24.9683 27.8218 26.9284 25.0868C28.8886 22.3518 29.9608 19.0805 30 15.7158V5.53317C29.9987 5.13311 29.8799 4.74224 29.6586 4.409C29.4372 4.07576 29.1229 3.81482 28.7547 3.6585C24.7157 1.9727 20.3764 1.1249 16 1.1665C11.6236 1.1249 7.28428 1.9727 3.24533 3.6585C2.87707 3.81482 2.56278 4.07576 2.34142 4.409C2.12005 4.74224 2.00134 5.13311 2 5.53317Z" fill="#DFF9FF"/>
<path d="M16 1.1665C11.6236 1.1249 7.28428 1.9727 3.24533 3.6585C2.87707 3.81482 2.56278 4.07576 2.34142 4.409C2.12005 4.74224 2.00134 5.13311 2 5.53317V15.7158C2.03918 19.0805 3.11144 22.3518 5.07158 25.0868C7.03172 27.8218 9.78503 29.8883 12.9587 31.0065L14.4533 31.5585C14.9488 31.7401 15.4723 31.8331 16 31.8332V1.1665Z" fill="white"/>
<path d="M2 5.53317V15.7158C2.03918 19.0805 3.11144 22.3518 5.07158 25.0868C7.03172 27.8218 9.78503 29.8883 12.9587 31.0065L14.4533 31.5585C15.4518 31.9252 16.5482 31.9252 17.5467 31.5585L19.0413 31.0065C22.215 29.8883 24.9683 27.8218 26.9284 25.0868C28.8886 22.3518 29.9608 19.0805 30 15.7158V5.53317C29.9987 5.13311 29.8799 4.74224 29.6586 4.409C29.4372 4.07576 29.1229 3.81482 28.7547 3.6585C24.7157 1.9727 20.3764 1.1249 16 1.1665C11.6236 1.1249 7.28428 1.9727 3.24533 3.6585C2.87707 3.81482 2.56278 4.07576 2.34142 4.409C2.12005 4.74224 2.00134 5.13311 2 5.53317Z" stroke="#00303E" stroke-linecap="round" stroke-linejoin="round"/>
<path d="M17.4173 8.88675L17.9093 10.5001C17.9904 10.7682 18.1704 10.9954 18.4128 11.1358C18.6551 11.2762 18.9418 11.3192 19.2147 11.2561L20.8507 10.8761C21.161 10.8065 21.4855 10.8381 21.7766 10.9662C22.0677 11.0943 22.3101 11.3123 22.4684 11.5882C22.6266 11.864 22.6924 12.1833 22.6561 12.4993C22.6199 12.8152 22.4834 13.1113 22.2667 13.3441L21.1213 14.5801C20.9322 14.7856 20.8272 15.0547 20.8272 15.3341C20.8272 15.6134 20.9322 15.8826 21.1213 16.0881L22.2667 17.3241C22.4834 17.5568 22.6198 17.8529 22.656 18.1688C22.6922 18.4848 22.6262 18.804 22.4677 19.0797C22.3092 19.3554 22.0665 19.5731 21.7753 19.7008C21.484 19.8285 21.1595 19.8596 20.8493 19.7894L19.2133 19.4107C18.9405 19.3477 18.6538 19.3907 18.4114 19.531C18.1691 19.6714 17.9891 19.8987 17.908 20.1667L17.416 21.7814C17.3248 22.0863 17.1377 22.3536 16.8825 22.5437C16.6273 22.7337 16.3176 22.8364 15.9993 22.8364C15.6811 22.8364 15.3714 22.7337 15.1162 22.5437C14.861 22.3536 14.6739 22.0863 14.5827 21.7814L14.0973 20.1734C14.0168 19.9052 13.8372 19.6777 13.595 19.537C13.3529 19.3963 13.0662 19.3531 12.7933 19.4161L11.156 19.7961C10.8457 19.8663 10.521 19.8351 10.2297 19.7072C9.93838 19.5794 9.69571 19.3615 9.53731 19.0855C9.37891 18.8096 9.31313 18.4902 9.34961 18.1741C9.38609 17.8581 9.52291 17.562 9.74001 17.3294L10.884 16.0934C11.0732 15.8879 11.1782 15.6188 11.1782 15.3394C11.1782 15.0601 11.0732 14.7909 10.884 14.5854L9.74001 13.3507C9.51999 13.1189 9.38045 12.8224 9.34207 12.5051C9.30369 12.1878 9.36849 11.8666 9.52688 11.589C9.68528 11.3114 9.92885 11.0922 10.2215 10.9638C10.5142 10.8354 10.8405 10.8046 11.152 10.8761L12.788 11.2547C13.0607 11.3178 13.3472 11.2747 13.5893 11.1343C13.8315 10.994 14.0112 10.7667 14.092 10.4987L14.584 8.88408C14.6752 8.57921 14.8623 8.31188 15.1175 8.12182C15.3727 7.93176 15.6825 7.8291 16.0007 7.8291C16.3189 7.8291 16.6286 7.93176 16.8838 8.12182C17.1391 8.31188 17.3262 8.57921 17.4173 8.88408V8.88675Z" fill="#DFF9FF"/>
<path d="M19.2146 11.2577C18.9417 11.3207 18.655 11.2777 18.4126 11.1374C18.1703 10.997 17.9903 10.7698 17.9092 10.5017L17.4172 8.88567C17.3253 8.58152 17.1379 8.31504 16.8827 8.12564C16.6276 7.93625 16.3183 7.83398 16.0006 7.83398C15.6828 7.83398 15.3735 7.93625 15.1184 8.12564C14.8632 8.31504 14.6758 8.58152 14.5839 8.88567L14.0919 10.5003C14.0111 10.7683 13.8314 10.9955 13.5892 11.1359C13.3471 11.2763 13.0606 11.3194 12.7879 11.2563L11.1506 10.8763C10.8392 10.8057 10.5135 10.837 10.2213 10.9657C9.92921 11.0944 9.68621 11.3137 9.52824 11.5911C9.37026 11.8685 9.30568 12.1893 9.34403 12.5062C9.38238 12.8231 9.52164 13.1193 9.74122 13.351L10.8852 14.5857C11.0744 14.7912 11.1794 15.0603 11.1794 15.3397C11.1794 15.619 11.0744 15.8881 10.8852 16.0937L9.74122 17.3297C9.52413 17.5623 9.38731 17.8583 9.35082 18.1744C9.31434 18.4904 9.38013 18.8099 9.53853 19.0858C9.69692 19.3617 9.93959 19.5796 10.2309 19.7075C10.5223 19.8354 10.8469 19.8665 11.1572 19.7963L11.5399 19.707L20.2239 11.023L19.2146 11.2577Z" fill="white"/>
<path d="M17.4173 8.88675L17.9093 10.5001C17.9904 10.7682 18.1704 10.9954 18.4128 11.1358C18.6551 11.2762 18.9418 11.3192 19.2147 11.2561L20.8507 10.8761C21.161 10.8065 21.4855 10.8381 21.7766 10.9662C22.0677 11.0943 22.3101 11.3123 22.4684 11.5882C22.6266 11.864 22.6924 12.1833 22.6561 12.4993C22.6199 12.8152 22.4834 13.1113 22.2667 13.3441L21.1213 14.5801C20.9322 14.7856 20.8272 15.0547 20.8272 15.3341C20.8272 15.6134 20.9322 15.8826 21.1213 16.0881L22.2667 17.3241C22.4834 17.5568 22.6198 17.8529 22.656 18.1688C22.6922 18.4848 22.6262 18.804 22.4677 19.0797C22.3092 19.3554 22.0665 19.5731 21.7753 19.7008C21.484 19.8285 21.1595 19.8596 20.8493 19.7894L19.2133 19.4107C18.9405 19.3477 18.6538 19.3907 18.4114 19.531C18.1691 19.6714 17.9891 19.8987 17.908 20.1667L17.416 21.7814C17.3248 22.0863 17.1377 22.3536 16.8825 22.5437C16.6273 22.7337 16.3176 22.8364 15.9993 22.8364C15.6811 22.8364 15.3714 22.7337 15.1162 22.5437C14.861 22.3536 14.6739 22.0863 14.5827 21.7814L14.0973 20.1734C14.0168 19.9052 13.8372 19.6777 13.595 19.537C13.3529 19.3963 13.0662 19.3531 12.7933 19.4161L11.156 19.7961C10.8457 19.8663 10.521 19.8351 10.2297 19.7072C9.93838 19.5794 9.69571 19.3615 9.53731 19.0855C9.37891 18.8096 9.31313 18.4902 9.34961 18.1741C9.38609 17.8581 9.52291 17.562 9.74001 17.3294L10.884 16.0934C11.0732 15.8879 11.1782 15.6188 11.1782 15.3394C11.1782 15.0601 11.0732 14.7909 10.884 14.5854L9.74001 13.3507C9.51999 13.1189 9.38045 12.8224 9.34207 12.5051C9.30369 12.1878 9.36849 11.8666 9.52688 11.589C9.68528 11.3114 9.92885 11.0922 10.2215 10.9638C10.5142 10.8354 10.8405 10.8046 11.152 10.8761L12.788 11.2547C13.0607 11.3178 13.3472 11.2747 13.5893 11.1343C13.8315 10.994 14.0112 10.7667 14.092 10.4987L14.584 8.88408C14.6752 8.57921 14.8623 8.31188 15.1175 8.12182C15.3727 7.93176 15.6825 7.8291 16.0007 7.8291C16.3189 7.8291 16.6286 7.93176 16.8838 8.12182C17.1391 8.31188 17.3262 8.57921 17.4173 8.88408V8.88675Z" stroke="#00303E" stroke-linecap="round" stroke-linejoin="round"/>
<path d="M15.9999 17.001C16.3299 17.0013 16.6526 16.9037 16.9271 16.7205C17.2016 16.5373 17.4156 16.2768 17.542 15.972C17.6684 15.6671 17.7016 15.3316 17.6373 15.008C17.5729 14.6843 17.4141 14.3869 17.1807 14.1536C16.9474 13.9202 16.65 13.7613 16.3263 13.697C16.0027 13.6327 15.6672 13.6659 15.3623 13.7923C15.0575 13.9187 14.797 14.1327 14.6138 14.4072C14.4306 14.6817 14.333 15.0044 14.3333 15.3344C14.3336 15.7763 14.5093 16.2 14.8218 16.5125C15.1343 16.825 15.558 17.0007 15.9999 17.001Z" fill="white" stroke="#00303E" stroke-linecap="round" stroke-linejoin="round"/>
</g>
<defs>
<clipPath id="clip0_29_38">
<rect width="32" height="32" fill="white" transform="translate(0 0.5)"/>
</clipPath>
</defs>
</svg>
